<svg width="105" height="44" viewBox="0 0 105 44" fill="none" xmlns="http://www.w3.org/2000/svg">
<path d="M64.1823 38.3464C65.4441 35.7082 66.9513 30.8685 64.6567 29.0379C64.411 28.8414 64.2076 28.7026 64.0446 28.6046C63.8242 28.472 63.7075 28.1448 63.8485 27.9443C64.0502 27.6575 64.3449 27.2212 64.7207 26.6186C66.6276 23.574 67.3023 19.8986 68.9092 16.7085C70.9192 12.4413 75.2975 9.66836 80.3279 8.19134C81.2861 7.90887 81.7865 7.48409 82.0083 7.0054C82.248 6.51474 82.2722 5.95928 82.0759 5.45292C81.7853 4.60768 80.3991 4.01471 78.8432 4.45566C75.9841 5.26533 72.8166 6.85447 70.5564 8.69159C66.1687 12.1858 65.4465 16.3355 64.0341 21.6657C63.2099 24.7922 62.4759 25.6957 60.2025 28.4708C59.8337 28.9204 59.7389 29.7376 60.448 30.1181C61.0753 30.4534 62.0572 30.0243 62.5304 30.8254C63.4044 32.3056 62.4261 34.3185 61.6944 35.9249C60.9188 37.6283 59.6606 39.294 58.5767 39.7997C57.4928 40.3053 56.537 39.6358 56.2334 36.617C55.9228 33.5358 56.3295 30.1817 57.2438 26.8579C57.6873 25.2407 57.8273 24.5302 58.0953 23.5729C58.3241 22.7567 58.2577 21.5385 56.8881 21.7401C56.084 21.8565 55.465 22.6931 55.1851 23.3864C54.6373 24.7308 54.355 25.6978 53.8807 27.1393C53.2664 29.0228 52.6367 31.2006 52.0118 32.6054C50.7737 35.3923 50.2555 37.072 47.7699 39.0558C47.1841 39.5237 46.5698 39.4784 46.2971 39.3792C45.6128 39.1215 45.3792 38.4693 45.3365 37.7987C45.1681 35.1627 46.641 32.8393 47.4296 30.6594C48.2466 28.6562 49.4455 26.487 47.4379 24.8256C47.0921 24.5378 46.7278 24.3882 46.4204 24.3116C46.1279 24.2387 45.9096 23.8972 46.0677 23.6668C46.4103 23.1676 46.8984 22.4462 47.2125 21.9374C50.2235 17.0222 49.8831 12.9383 47.5778 10.1762C44.8503 6.90946 41.7018 7.51967 37.7849 7.11753C34.4573 6.77685 34.1395 5.11331 36.337 3.06057C38.1964 1.32156 35.9492 -0.794785 33.8111 0.301662C32.875 0.797809 32.056 1.45733 31.4014 2.24228C29.5799 4.35755 29.6783 7.46899 31.8081 9.3902C34.3921 11.7222 38.1466 10.7282 41.2785 11.0074C44.5515 11.2942 45.7966 13.7027 45.8559 16.1392C45.92 18.7968 45.1444 20.7752 43.5862 23.2365C43.1818 23.8747 42.7561 24.4968 42.2971 25.1114C41.6757 25.948 42.5521 27.094 43.802 26.5302C43.9498 26.455 44.117 26.4171 44.2864 26.4205C44.4557 26.4239 44.6209 26.4685 44.7649 26.5496C45.3721 26.8967 45.1147 27.7128 44.8586 28.2562C44.6961 28.6098 44.2763 29.5845 44.0949 29.9586C42.8154 32.8695 41.2061 36.3346 42.1181 39.446C42.711 41.5451 45.1823 43.1893 47.6217 42.426C49.8267 41.6536 50.9294 40.305 52.0706 38.6331C52.2528 38.3662 52.7333 38.4592 52.7947 38.7666C53.3207 41.4004 55.0124 43.7222 58.4309 43.1127C61.1916 42.6146 63.0866 40.495 64.1823 38.3464Z" fill="white"/>
<path d="M104.254 34.6042C103.282 32.8275 100.964 32.6237 100.44 34.1266C100.069 35.1897 100.949 36.3907 100.891 37.4472C100.772 39.4515 98.1076 40.1566 95.6196 39.1819C93.7594 38.4522 92.0488 37.7225 90.7104 36.2611C90.5774 36.1159 90.6247 35.9025 90.7967 35.7943C92.4554 34.7505 93.2214 33.1897 93.14 31.5898C93.0463 29.757 92.2885 28.6239 90.7967 27.6094C89.9627 27.0296 89.0001 26.6261 87.9788 26.4253C87.7116 26.3728 87.5769 26.092 87.7263 25.8885C88.1779 25.2732 88.5046 24.6644 88.6491 24.0311C88.9335 22.7794 88.7852 21.4783 88.2245 20.3062C87.8617 19.5073 87.3755 18.7322 86.6473 17.792C85.9631 16.9403 85.1342 16.0487 85.0547 15.0019C84.9421 13.9173 85.1614 13.016 85.5516 11.7912C85.8315 10.8867 85.0144 9.91207 83.9092 9.83013C81.9857 9.69429 80.3053 11.5939 79.3626 13.196C77.7664 15.9053 77.1248 18.3958 77.3323 21.2819C77.4924 23.5028 78.0273 24.9109 79.1847 27.0154C79.8239 28.1776 80.552 29.4487 81.0334 31.3656C81.4876 33.1783 81.6768 34.7164 80.9687 36.304C80.8345 36.6049 80.3354 36.5061 80.2527 36.191C80.0108 35.2686 79.4545 34.5118 78.5713 34.2191C78.3205 34.1359 78.1749 33.8654 78.3051 33.6576C79.4943 31.7589 79.1255 30.4418 78.255 28.5894C77.8304 27.6881 77.4248 27.1426 76.9837 26.2952C75.9935 24.4516 75.5132 22.3708 75.4421 20.3407C75.3496 18.6039 75.7136 16.8368 76.1441 15.2024C76.3813 13.8192 74.2894 13.3319 73.2838 14.466C71.8465 16.0832 71.4884 16.9964 70.886 18.3365C68.602 23.4155 68.4893 27.1059 68.0197 32.0286C67.7043 34.338 67.1363 36.574 66.0038 38.4801C65.4013 39.541 64.608 40.4574 63.7506 41.3792C62.4699 43.212 65.5294 44.4259 67.2371 42.5435C69.055 40.5371 69.6503 39.3199 70.1851 36.8543C70.3713 35.9918 70.7472 34.8059 71.3413 34.0867C72.7453 32.3862 74.3188 31.3056 75.9035 30.7969C76.1011 30.7334 76.3132 30.8448 76.3421 31.0296C76.5686 32.4788 75.7896 33.2234 74.3463 34.8673C73.6182 35.6942 74.8954 36.8672 75.984 36.3842C76.8343 36.009 77.4201 36.8327 77.5422 37.4623C77.7012 38.1739 77.5529 38.8165 77.1272 39.5323C76.7534 40.1204 76.2867 40.6554 75.7421 41.1204C75.6323 41.2141 75.5459 41.3281 75.4888 41.4548C75.4318 41.5815 75.4053 41.7179 75.4113 41.8547C75.4172 41.9915 75.4555 42.1255 75.5234 42.2477C75.5913 42.3699 75.6873 42.4774 75.8049 42.5629C76.6351 43.2098 77.8209 43.019 78.3913 42.8109C83.9675 40.7905 85.6459 34.2736 83.3987 29.3181C83.3222 29.1494 83.4119 28.9552 83.5969 28.8771C83.9775 28.7164 84.3681 28.5221 84.7832 28.3997C85.9287 28.0633 86.8821 28.184 87.7941 28.4902C89.0985 28.9301 89.9796 29.9996 90.1978 30.9872C90.5145 32.4297 89.8041 33.4442 87.9162 34.2743C85.1887 35.471 89.3938 39.3857 90.4896 40.1555C92.0419 41.3985 94.2843 42.4055 96.5375 42.743C99.1037 43.1311 101.858 42.4907 103.59 40.6061C104.984 39.0925 105.468 36.823 104.254 34.6042ZM72.8877 23.2355C73.2812 25.0839 74.1346 26.8743 75.1969 28.5104C75.3229 28.7045 75.1972 28.9545 74.9548 29.0167C73.7493 29.3257 72.475 30.0244 71.4382 30.8139C71.1895 31.0033 70.786 30.8444 70.7989 30.5536C70.9209 27.801 71.1735 25.0688 72.0448 22.469C72.154 22.1434 72.6796 22.1958 72.7417 22.531C72.7854 22.7666 72.834 23.0015 72.8877 23.2355ZM81.1105 24.6101C80.3325 22.1765 80.3455 19.3773 81.2871 16.9687C81.4003 16.6789 81.8926 16.703 82.0406 16.9801C82.8639 18.5208 84.5887 19.8913 85.2978 21.3121C86.5956 23.7373 85.2378 25.9193 82.5803 26.9859C82.408 27.055 82.2072 26.986 82.126 26.8344C81.7297 26.0941 81.327 25.261 81.1105 24.6101Z" fill="white"/>
<path d="M41.3994 41.2131C38.2877 38.4541 39.6716 33.7374 40.9903 30.8706C41.1765 30.3801 41.5061 29.9941 41.5737 29.4691C41.6413 28.944 41.1942 28.391 40.5835 28.239C39.9685 28.0288 39.2082 28.3155 38.6913 28.0294C38.6646 28.0146 38.6412 27.9953 38.6221 27.973C37.7306 26.9326 39.3443 24.4382 40.8883 21.8975C41.7397 20.4959 42.3457 19.0739 42.3113 17.7435C42.3076 16.6671 42.0479 15.6042 41.55 14.6277C40.7614 13.0634 39.3645 11.9529 37.5441 12.8844C36.6346 13.3501 36.6429 14.5016 37.3354 15.1775C37.7279 15.5503 38.0561 15.9748 38.309 16.4368C39.7605 19.2054 37.4932 22.0797 36.3547 24.6844C35.7926 25.9037 35.3918 27.3797 36.0452 28.6098C36.6037 29.7754 37.5028 30.2005 38.0542 30.355C38.2868 30.4202 38.4525 30.6499 38.3739 30.8549C38.0102 31.8031 37.1483 34.1718 37.0105 35.6661C36.9268 36.566 36.87 37.2763 36.9696 38.1505C37.0049 38.46 36.5948 38.6471 36.3733 38.4061C35.6731 37.6445 35.1379 36.7653 34.8 35.8149C33.8786 33.3094 34.0565 30.2356 33.9533 26.4299C33.8786 23.6419 34.1905 21.408 32.7366 16.8249C32.407 15.7878 31.3326 15.3608 30.4289 15.6228C29.4802 15.8988 29.281 16.6621 29.4399 17.544C29.8799 19.9784 29.7637 21.7832 29.4245 23.465C29.0782 25.1803 28.4225 26.7673 27.2105 29.1241C26.2323 31.026 25.4274 32.4944 24.9625 33.8878C24.8407 34.2527 24.1798 34.256 24.2116 33.8765C24.2294 33.6636 24.2579 33.4583 24.2956 33.2608C25.2277 28.3813 28.9027 23.8726 27.9339 18.7817C27.4832 15.763 25.9392 12.9814 23.6956 10.4403C23.4636 10.1902 23.1622 10.0011 22.8227 9.89269C22.4833 9.78425 22.118 9.76039 21.765 9.8236C20.7131 10.0015 20.0123 10.9545 20.3076 11.8203C21.7792 16.1263 20.323 20.2059 17.4164 23.9254C15.7455 26.2261 13.1093 28.3317 11.9543 30.9946C11.1702 32.803 11.9443 35.0461 13.7579 35.8821C13.9949 35.9913 14.0771 36.2786 13.8867 36.4449C12.0441 38.0545 10.0425 39.0702 8.16427 39.5129C6.98433 39.791 5.58856 39.7285 4.85688 38.7733C4.34459 38.1016 4.29241 36.8995 4.82012 35.6995C5.26956 34.6807 5.30158 32.8835 3.55598 32.9482C2.4887 32.987 1.40126 33.5379 0.801211 34.7044C-0.535262 37.3049 -0.058543 39.2325 1.19492 40.7678C3.3449 43.4113 8.48801 43.1397 11.6483 41.5322C13.3086 40.715 15.3767 39.2358 16.8484 37.6337C17.5492 36.8704 18.3094 36.1179 18.4303 35.319C18.5596 34.4629 17.6536 34.3767 16.8887 34.3142C16.4713 34.2827 16.0709 34.1498 15.7294 33.9294C15.3879 33.709 15.1178 33.4092 14.9474 33.0614C14.3568 31.2937 16.1885 29.8513 17.361 28.4325C17.4561 28.3175 17.6238 28.2666 17.7715 28.3227C18.6228 28.6456 19.8956 29.469 21.2159 31.5477C21.5266 32.0361 21.5919 33.1746 21.5207 33.7676C21.4194 34.6083 21.4051 35.4558 21.478 36.299C21.7223 38.5814 22.486 39.749 23.7312 40.95C24.7202 41.9106 26.1397 42.4712 28.0181 42.4259C28.8411 42.4065 29.3415 41.819 29.268 41.24C29.1778 40.5241 28.464 40.4109 27.9635 39.5937C25.6861 35.9057 28.6433 32.2327 30.3799 28.6369C30.535 28.3158 31.1317 28.3862 31.1647 28.7343C31.5297 32.5778 31.9435 36.5672 34.4751 40.0153C35.4072 41.2853 38.5569 44.2199 40.5041 43.8545C41.716 43.6173 42.4501 42.1402 41.3994 41.2131ZM23.9185 18.6998C23.9896 18.4772 24.3395 18.4689 24.3979 18.6943C25.2787 22.0954 23.791 25.4369 22.6331 28.7382C22.5437 28.9931 22.16 29.0502 21.9731 28.8412C21.2171 27.996 20.3505 27.2726 19.3548 26.7711C19.1545 26.6702 19.0926 26.434 19.2334 26.2722C21.3039 23.8926 23.0632 21.4342 23.9185 18.6998Z" fill="white"/>
</svg>
